<?xml version="1.0" standalone="no"?>
<!DOCTYPE svg PUBLIC "-//W3C//DTD SVG 20010904//EN"
 "http://www.w3.org/TR/2001/REC-SVG-20010904/DTD/svg10.dtd">
<svg version="1.0" xmlns="http://www.w3.org/2000/svg"
 width="2048.000000pt" height="2048.000000pt" viewBox="0 0 2048.000000 2048.000000"
 preserveAspectRatio="xMidYMid meet">
<metadata>
Created by potrace 1.14, written by Peter Selinger 2001-2017
</metadata>
<g transform="translate(0.000000,2048.000000) scale(0.100000,-0.100000)"
fill="#000000" stroke="none">
<path d="M10266 18215 c-9 -9 -20 -24 -25 -33 -8 -14 -13 -15 -30 -4 -12 6
-23 12 -25 12 -14 0 -66 -153 -66 -193 0 -13 -3 -27 -7 -31 -7 -7 -14 -42 -38
-206 -4 -25 -10 -54 -15 -65 -5 -11 -11 -38 -13 -60 -16 -142 -40 -215 -127
-386 -5 -9 -12 -33 -15 -53 -4 -20 -11 -36 -16 -36 -5 0 -9 -8 -9 -17 -1 -21
-34 -120 -44 -130 -3 -3 -6 -17 -6 -29 0 -13 -4 -25 -9 -28 -5 -4 -12 -24 -16
-46 -4 -22 -11 -42 -16 -46 -5 -3 -9 -18 -9 -34 0 -16 -4 -32 -10 -35 -5 -3
-10 -15 -10 -26 0 -20 -40 -89 -69 -120 -33 -35 -135 -99 -158 -99 -12 0 -23
-4 -23 -10 0 -5 -8 -10 -18 -10 -19 0 -48 -12 -125 -51 -22 -10 -45 -19 -53
-19 -8 0 -14 -4 -14 -10 0 -5 -5 -10 -12 -10 -13 0 -180 -81 -188 -91 -3 -3
-16 -10 -30 -14 -14 -4 -36 -15 -50 -24 -14 -9 -43 -26 -65 -36 -22 -11 -41
-23 -43 -27 -2 -5 -10 -8 -18 -8 -8 0 -25 -6 -37 -14 -43 -27 -112 -66 -157
-88 -25 -12 -47 -24 -50 -27 -3 -3 -36 -22 -75 -41 -38 -19 -72 -37 -75 -40
-3 -3 -18 -12 -35 -20 -16 -8 -32 -17 -35 -20 -3 -3 -23 -14 -45 -25 -22 -11
-42 -22 -45 -25 -5 -5 -44 -27 -125 -69 -27 -14 -51 -29 -53 -33 -2 -5 -8 -8
-13 -8 -5 0 -38 -18 -73 -40 -35 -22 -68 -40 -75 -40 -6 0 -11 -3 -11 -7 0 -5
-10 -13 -23 -19 -67 -34 -87 -46 -87 -55 0 -5 -11 -9 -25 -9 -14 0 -25 -4 -25
-10 0 -5 -11 -12 -25 -16 -14 -3 -25 -10 -25 -14 0 -4 -15 -15 -32 -25 -18 -9
-46 -23 -61 -32 -15 -8 -39 -32 -52 -53 -21 -33 -25 -52 -25 -118 0 -43 5 -83
11 -89 7 -7 10 -65 10 -159 -1 -196 16 -370 74 -749 9 -60 19 -130 21 -155 3
-25 8 -52 11 -60 4 -8 12 -53 19 -100 13 -88 27 -178 43 -265 6 -27 15 -86 22
-130 6 -44 15 -89 19 -100 5 -11 11 -40 14 -65 5 -40 13 -85 46 -265 17 -90
41 -229 46 -265 3 -19 9 -44 14 -55 5 -11 11 -36 13 -55 5 -32 28 -156 42
-225 7 -30 28 -86 45 -117 6 -10 10 -25 10 -33 0 -8 5 -15 10 -15 6 0 10 -9
10 -20 0 -11 5 -20 10 -20 6 0 10 -6 10 -12 0 -7 18 -49 40 -93 22 -44 40 -90
40 -102 0 -12 4 -24 8 -27 5 -3 9 -41 10 -86 1 -44 6 -88 11 -98 5 -9 12 -47
16 -85 4 -37 11 -70 16 -73 5 -3 9 -17 9 -31 0 -14 6 -48 14 -76 8 -29 19 -79
26 -112 6 -33 16 -68 21 -77 5 -10 9 -25 9 -34 0 -21 30 -153 40 -179 5 -11
11 -33 14 -50 8 -48 32 -149 38 -165 4 -8 9 -26 12 -40 2 -14 12 -54 21 -90 9
-36 19 -82 22 -102 3 -21 9 -38 13 -38 4 0 10 -17 13 -37 7 -45 31 -152 39
-173 4 -8 9 -26 12 -40 2 -14 12 -54 21 -90 9 -36 18 -76 21 -90 3 -14 10 -34
15 -46 12 -24 6 -196 -9 -269 -21 -100 -32 -141 -61 -220 -13 -33 -65 -140
-72 -145 -4 -3 -9 -15 -13 -27 -4 -13 -12 -23 -17 -23 -5 0 -9 -7 -9 -15 0 -8
-11 -36 -24 -63 -13 -26 -28 -58 -34 -72 -5 -14 -14 -37 -20 -52 -6 -15 -14
-50 -18 -78 -4 -28 -11 -53 -15 -56 -11 -6 -12 -91 -1 -96 9 -4 42 -66 42 -79
0 -6 9 -19 20 -31 11 -12 23 -36 26 -55 3 -18 10 -33 15 -33 5 0 9 -9 9 -19 0
-11 4 -21 10 -23 5 -1 11 -16 13 -33 3 -16 2 -23 0 -15 -3 8 -8 17 -12 20 -10
8 -41 79 -41 95 0 7 -3 15 -7 17 -12 5 -43 64 -43 82 0 9 -4 16 -10 16 -5 0
-10 7 -10 15 0 8 -4 15 -10 15 -5 0 -10 6 -10 13 0 16 -41 57 -57 57 -6 0 -13
3 -15 8 -5 12 -80 58 -223 136 -11 6 -22 13 -25 17 -8 8 -77 39 -89 39 -6 0
-11 5 -11 10 0 6 -9 10 -20 10 -11 0 -20 4 -20 8 0 4 -22 16 -50 27 -27 11
-50 23 -50 27 0 4 -6 8 -14 8 -7 0 -27 7 -42 15 -16 8 -37 15 -46 15 -10 0
-18 5 -18 10 0 6 -8 10 -18 10 -10 0 -21 3 -25 6 -7 7 -110 45 -207 75 -36 12
-74 25 -85 29 -41 16 -128 40 -146 40 -10 0 -20 4 -23 9 -3 5 -23 11 -43 14
-94 14 -169 30 -185 38 -11 6 -18 6 -18 -1 0 -13 28 -26 74 -34 21 -4 46 -11
55 -16 9 -4 30 -13 46 -20 17 -6 43 -18 58 -26 16 -8 35 -14 43 -14 8 0 14 -4
14 -10 0 -5 6 -10 13 -10 47 0 321 -235 403 -345 16 -22 35 -46 42 -53 6 -7
12 -19 12 -27 0 -7 4 -15 9 -17 11 -4 81 -114 81 -128 0 -5 4 -10 8 -10 4 0
13 -12 19 -27 7 -16 26 -50 42 -78 17 -27 30 -58 31 -67 0 -10 5 -18 10 -18 6
0 10 -4 10 -10 0 -5 12 -35 26 -67 46 -102 54 -121 54 -132 0 -6 4 -19 9 -29
13 -26 28 -62 47 -117 9 -27 23 -55 30 -61 8 -6 11 -14 8 -17 -4 -3 -3 -14 1
-24 15 -34 33 -108 28 -116 -3 -4 4 -16 14 -25 12 -10 20 -31 20 -53 1 -19 8
-56 17 -82 9 -26 16 -56 16 -67 0 -10 4 -29 9 -42 5 -13 17 -59 26 -103 9 -44
21 -94 26 -111 5 -17 9 -42 9 -57 0 -14 5 -29 10 -32 6 -3 10 -16 10 -28 0
-34 31 -157 52 -205 10 -24 21 -57 25 -73 3 -16 10 -32 14 -35 5 -3 9 -14 9
-25 0 -10 5 -19 10 -19 6 0 10 -5 10 -12 0 -12 80 -178 90 -188 3 -3 14 -23
25 -45 11 -22 22 -42 25 -45 6 -6 23 -33 56 -92 15 -27 30 -48 35 -48 4 0 10
-11 13 -25 4 -14 11 -25 16 -25 6 0 10 -7 10 -15 0 -8 3 -15 8 -15 4 0 16 -16
26 -35 11 -19 22 -35 25 -35 4 0 15 -16 25 -35 11 -19 23 -35 28 -35 4 0 8 -7
8 -15 0 -8 4 -15 9 -15 5 0 12 -8 15 -17 3 -10 21 -36 41 -58 19 -22 35 -43
35 -48 0 -4 14 -21 30 -39 16 -17 30 -35 30 -39 0 -5 14 -22 30 -39 16 -17 30
-35 30 -40 0 -6 3 -10 8 -10 4 0 18 -17 32 -37 14 -20 39 -51 56 -69 17 -18
39 -45 50 -60 10 -14 32 -40 48 -57 16 -18 44 -51 64 -75 19 -23 51 -60 71
-81 141 -152 214 -232 233 -257 29 -37 81 -84 87 -78 5 4 -27 73 -39 84 -3 3
-18 29 -33 58 -15 28 -39 76 -54 105 -15 28 -30 54 -33 57 -3 3 -14 25 -25 50
-11 25 -22 47 -25 50 -10 10 -60 115 -60 128 0 6 -4 12 -8 12 -4 0 -16 22 -27
50 -11 28 -23 50 -27 50 -4 0 -8 4 -8 9 0 5 -14 40 -31 78 -83 183 -114 251
-134 298 -35 83 -57 131 -66 147 -5 10 -9 23 -9 29 0 6 -7 26 -15 45 -36 82
-45 102 -64 154 -12 30 -21 63 -21 73 0 9 -3 17 -8 17 -4 0 -16 30 -26 68 -11
37 -23 74 -27 82 -14 26 -39 110 -39 130 0 10 -4 21 -9 24 -5 3 -11 18 -14 33
-3 16 -13 53 -22 83 -9 30 -21 71 -25 90 -48 198 -50 206 -89 415 -6 33 -14
80 -16 105 -3 25 -8 55 -10 67 -3 12 -6 69 -6 125 -1 57 -5 105 -9 108 -5 3
-11 23 -14 45 -3 22 -3 34 0 28 16 -34 23 -2 27 120 5 151 26 275 56 337 4 8
16 43 27 77 10 35 22 63 27 63 4 0 7 6 7 13 0 16 80 151 92 155 4 2 8 8 8 14
0 6 8 18 18 27 10 9 33 36 52 61 19 25 46 56 61 70 14 14 30 32 35 42 9 16 75
94 129 151 17 18 43 50 60 72 16 22 44 55 62 73 18 19 33 38 33 42 0 5 15 24
33 42 17 19 44 50 59 69 15 19 37 47 50 63 13 17 35 42 51 58 15 15 27 31 27
35 0 4 16 26 35 48 19 22 35 43 35 47 0 3 6 13 13 20 25 26 117 158 117 168 0
5 5 10 10 10 6 0 10 6 10 14 0 8 4 16 9 18 12 4 91 157 91 175 0 7 4 13 9 13
5 0 11 12 14 28 3 15 10 45 16 67 6 22 11 88 11 147 0 116 -17 186 -80 322
-28 59 -40 105 -22 81 8 -12 80 -54 105 -62 9 -3 17 -9 17 -14 0 -5 6 -9 13
-9 7 0 24 -11 39 -25 15 -14 31 -25 37 -25 5 0 11 -3 13 -8 2 -4 23 -23 48
-42 25 -19 70 -59 100 -89 30 -29 71 -65 90 -79 40 -29 235 -226 265 -268 11
-15 27 -35 36 -43 25 -26 109 -149 109 -160 0 -6 4 -11 10 -11 5 0 12 -11 16
-25 3 -14 10 -25 15 -25 5 0 9 -7 9 -15 0 -8 4 -15 10 -15 5 0 12 -11 16 -25
3 -14 10 -25 15 -25 5 0 9 -9 9 -19 0 -11 4 -21 8 -23 10 -4 112 -210 112
-226 0 -7 4 -12 9 -12 5 0 11 -12 14 -27 5 -31 29 -95 38 -103 3 -3 13 -32 23
-65 9 -33 21 -68 27 -77 5 -10 9 -28 9 -41 0 -13 4 -27 9 -33 5 -5 14 -31 21
-59 6 -27 16 -68 21 -90 5 -22 14 -58 20 -80 5 -22 14 -74 20 -115 6 -41 15
-84 19 -95 5 -11 11 -45 14 -75 3 -30 10 -95 15 -145 25 -234 32 -513 17 -745
-3 -58 -9 -158 -13 -223 -3 -65 -10 -120 -15 -123 -4 -3 -8 -31 -8 -63 0 -32
-3 -61 -7 -65 -7 -7 -21 -101 -40 -264 -3 -29 -9 -55 -14 -58 -5 -3 -9 -21 -9
-40 0 -20 -4 -43 -9 -53 -14 -26 -25 -141 -14 -141 5 0 14 10 20 23 17 36 143
170 238 252 147 128 194 171 348 323 59 59 107 110 107 114 0 4 -10 9 -22 11
-15 3 -10 5 13 6 29 1 44 10 78 46 23 25 43 45 46 45 2 0 37 33 78 73 91 90
249 232 347 313 19 16 42 36 50 44 9 8 32 27 51 42 19 14 50 41 69 58 19 17
48 41 63 53 16 12 46 38 67 57 76 69 107 95 143 123 60 47 207 198 207 213 0
2 11 17 25 32 14 15 25 32 25 39 0 7 5 13 10 13 6 0 10 7 10 15 0 8 4 15 8 15
8 0 42 70 77 160 9 25 21 53 26 62 5 10 9 31 9 47 0 17 4 32 9 35 5 4 12 41
16 84 4 42 10 82 14 87 3 6 11 89 17 185 11 175 4 335 -16 372 -6 10 -10 27
-10 39 0 18 -2 19 -15 9 -8 -7 -15 -17 -15 -22 0 -5 -12 -28 -27 -51 -43 -65
-53 -81 -60 -97 -4 -8 -13 -21 -20 -28 -7 -7 -13 -20 -13 -28 0 -8 -3 -14 -7
-14 -5 0 -21 -21 -38 -45 -16 -25 -33 -45 -37 -45 -5 0 -8 -5 -8 -10 0 -21
-166 -200 -250 -269 -89 -74 -133 -107 -170 -127 -19 -10 -41 -25 -48 -32 -8
-7 -49 -29 -91 -48 -42 -19 -84 -39 -93 -44 -10 -6 -25 -10 -33 -10 -8 0 -15
-3 -15 -8 0 -8 -73 -42 -90 -42 -6 0 -10 -3 -10 -7 0 -5 -19 -17 -43 -28 -23
-11 -58 -29 -77 -41 -19 -11 -64 -38 -100 -59 -36 -21 -66 -42 -68 -47 -2 -4
-8 -8 -13 -8 -8 0 -248 -166 -259 -180 -9 -11 -77 -60 -83 -60 -4 0 -7 7 -7
15 0 8 5 15 11 15 18 0 -12 274 -32 294 -5 6 -9 20 -9 32 0 13 -4 26 -10 29
-5 3 -10 15 -10 26 0 10 -4 19 -10 19 -5 0 -10 5 -10 11 0 16 -32 82 -47 97
-7 7 -13 19 -13 27 0 7 -3 15 -8 17 -10 4 -104 146 -118 178 -21 48 -32 75
-43 115 -38 129 -76 452 -67 558 6 61 12 94 36 197 5 19 15 63 22 98 13 66 32
81 41 33 4 -18 24 -43 54 -67 26 -22 66 -58 90 -81 51 -51 58 -85 51 -262 -2
-70 -3 -114 -1 -98 3 15 9 27 14 27 5 0 9 11 9 25 0 14 4 25 9 25 5 0 11 15
14 33 4 17 11 59 17 92 18 108 -5 197 -84 314 -20 29 -36 57 -36 62 0 5 -4 9
-10 9 -5 0 -10 9 -10 19 0 11 -5 21 -10 23 -24 8 -24 248 0 248 4 0 11 -19 14
-42 11 -72 67 -198 89 -198 11 0 8 25 -5 38 -9 9 -13 47 -13 120 1 191 11 448
19 460 4 7 1 15 -8 18 -9 3 -13 10 -11 15 6 9 67 0 75 -11 3 -4 20 -11 38 -15
17 -3 32 -11 32 -16 0 -5 6 -9 13 -9 20 -1 54 -34 75 -74 16 -29 18 -44 11
-74 -4 -20 -13 -38 -19 -40 -6 -2 -17 -10 -24 -18 -8 -8 -17 -14 -20 -14 -4 0
-19 -12 -35 -27 -67 -65 -103 -179 -81 -260 18 -64 44 -99 90 -123 42 -21 90
-27 90 -10 0 6 -5 10 -11 10 -26 0 -89 57 -104 95 -31 74 -3 124 126 225 24
19 63 54 85 76 35 36 42 50 48 98 4 31 5 71 1 89 -10 49 -57 135 -82 148 -12
6 -20 17 -17 23 9 26 -82 99 -95 77 -6 -10 -9 -9 -14 2 -3 7 3 20 12 27 17 12
17 15 -7 59 -21 39 -25 59 -26 132 0 48 5 93 10 100 6 8 14 27 18 44 4 16 11
32 14 35 13 10 112 151 112 159 0 5 6 12 13 14 9 4 8 8 -3 16 -12 8 -12 11 -1
11 20 0 90 98 108 153 3 9 9 17 14 17 5 0 9 9 9 20 0 11 5 20 10 20 6 0 10 4
10 10 0 17 34 90 42 90 5 0 8 6 8 13 0 6 11 34 25 61 14 27 25 53 25 57 0 8
41 102 60 139 4 9 11 30 14 48 4 17 12 34 17 37 5 4 9 17 9 31 0 13 5 24 10
24 6 0 10 7 10 15 0 18 27 104 40 127 6 10 10 27 10 37 0 11 4 22 9 25 5 4 12
25 16 48 4 23 11 49 15 58 5 8 13 35 20 60 6 25 18 66 25 91 8 26 15 56 15 67
0 12 4 23 9 26 4 3 11 29 15 58 4 28 11 59 16 67 4 9 11 36 14 61 3 25 10 62
15 84 5 21 7 45 4 52 -3 7 2 21 11 29 15 15 22 60 17 113 -1 12 3 22 9 22 5 0
10 9 10 20 0 11 4 28 9 38 5 9 14 55 21 102 7 47 16 110 22 140 18 109 27 177
41 295 7 66 16 127 19 135 4 8 9 51 12 95 4 44 11 107 17 140 19 105 16 127
-21 186 -19 30 -73 92 -120 139 -82 81 -113 108 -189 168 -19 15 -48 39 -65
53 -17 14 -65 50 -106 80 -41 29 -84 62 -94 71 -11 10 -23 18 -26 18 -4 0 -20
11 -36 25 -16 14 -37 28 -46 31 -10 3 -18 10 -18 15 0 5 -5 9 -11 9 -6 0 -17
6 -24 13 -33 29 -45 37 -55 37 -5 0 -10 3 -10 8 0 4 -16 16 -35 26 -19 11 -35
23 -35 28 0 4 -4 8 -8 8 -5 0 -66 38 -137 85 -70 47 -132 85 -136 85 -5 0 -9
3 -9 8 0 4 -16 16 -35 26 -19 11 -35 22 -35 26 0 4 -8 10 -17 14 -10 3 -43 23
-74 44 -32 20 -106 68 -165 106 -60 38 -111 72 -114 76 -3 4 -15 10 -27 14
-20 6 -144 122 -168 156 -6 8 -27 38 -47 65 -87 121 -131 241 -142 395 -25
334 -41 462 -64 530 -10 29 -18 100 -21 203 -4 100 -10 160 -17 165 -18 11
-41 90 -54 190 -13 95 -22 108 -54 77z m137 -1812 c207 -205 524 -525 628
-634 30 -31 115 -119 189 -196 74 -77 162 -170 195 -207 33 -37 78 -86 100
-110 62 -66 139 -156 149 -173 5 -9 21 -29 37 -46 16 -16 31 -38 34 -48 4 -11
10 -19 14 -19 14 0 61 -108 61 -139 0 -42 -19 -82 -57 -126 -7 -7 -13 -23 -13
-34 0 -11 -4 -22 -9 -26 -6 -3 -13 -26 -17 -50 -3 -25 -10 -48 -15 -51 -5 -3
-9 -14 -9 -25 0 -10 -4 -27 -9 -37 -5 -9 -17 -39 -26 -67 -17 -47 -59 -116
-77 -123 -4 -2 -8 -10 -8 -18 0 -8 -4 -14 -8 -14 -4 0 -21 -26 -37 -57 -17
-32 -32 -60 -35 -63 -11 -10 -60 -132 -60 -150 0 -10 -7 -20 -15 -24 -8 -3
-15 -14 -15 -25 0 -11 -4 -22 -9 -25 -5 -4 -12 -24 -16 -46 -4 -22 -11 -42
-16 -46 -5 -3 -9 -14 -9 -25 0 -10 -4 -19 -10 -19 -5 0 -10 -7 -10 -15 0 -31
-82 -171 -117 -200 -20 -16 -64 -58 -98 -92 -64 -65 -91 -76 -120 -47 -11 12
-14 25 -9 48 3 17 10 33 13 36 10 7 36 67 51 115 7 22 16 49 20 61 5 11 16
125 26 252 16 220 16 240 0 414 -10 101 -21 197 -26 213 -5 17 -17 66 -26 110
-10 44 -21 84 -26 89 -4 6 -8 22 -8 37 0 15 -4 31 -10 34 -5 3 -10 32 -10 63
0 57 -19 126 -59 217 -30 67 -95 199 -101 205 -3 3 -14 23 -25 45 -64 129
-131 205 -217 250 -32 16 -58 33 -58 37 0 4 -4 8 -9 8 -8 0 -93 53 -126 78 -5
4 -41 27 -80 52 -38 24 -72 47 -75 50 -3 3 -22 13 -43 23 -55 25 -95 22 -122
-9 l-22 -26 -41 26 c-54 34 -72 33 -129 -8 -27 -18 -66 -37 -88 -41 -41 -7
-147 -54 -153 -67 -2 -5 -10 -8 -18 -8 -8 0 -14 -3 -14 -7 0 -5 -16 -19 -35
-32 -67 -45 -186 -177 -200 -221 -4 -11 -11 -20 -16 -20 -5 0 -9 -6 -9 -14 0
-8 -3 -16 -7 -18 -5 -1 -21 -30 -36 -63 -16 -33 -35 -73 -43 -88 -8 -16 -14
-37 -14 -48 0 -10 -4 -19 -10 -19 -5 0 -10 -10 -10 -23 0 -13 -4 -27 -9 -32
-5 -6 -14 -37 -20 -70 -7 -33 -16 -80 -22 -105 -15 -70 -38 -291 -45 -439 -8
-157 16 -513 47 -711 16 -98 23 -370 10 -383 -6 -6 -11 -18 -11 -27 0 -26 -39
-100 -56 -107 -11 -4 -69 48 -188 168 -94 96 -189 197 -211 224 -22 28 -42 52
-45 55 -18 17 -60 80 -60 89 0 6 -4 11 -8 11 -14 0 -56 219 -81 415 -7 50 -16
92 -21 93 -6 2 -10 10 -10 18 0 19 -28 113 -41 136 -5 10 -9 27 -9 38 0 11 -4
20 -10 20 -5 0 -10 11 -10 24 0 14 -4 27 -9 30 -5 4 -12 24 -16 46 -4 22 -11
42 -16 46 -5 3 -9 16 -9 29 0 13 -4 26 -9 29 -5 4 -12 24 -16 46 -4 22 -11 42
-16 46 -5 3 -9 15 -9 28 0 12 -5 27 -11 33 -5 5 -13 35 -16 65 -9 85 19 130
175 282 239 232 285 277 347 331 38 33 87 78 110 100 22 22 52 49 67 60 14 11
50 43 80 70 60 54 175 153 247 211 13 10 42 36 65 56 22 21 44 38 47 38 4 0
24 16 45 35 21 19 41 35 45 35 4 0 14 6 21 13 7 6 40 34 73 60 33 26 68 55 78
63 9 7 20 14 23 14 2 0 29 18 59 40 30 22 56 40 59 40 4 0 101 61 121 77 25
19 74 43 89 43 9 0 16 5 16 10 0 6 5 10 11 10 6 0 17 7 25 15 9 8 31 15 51 15
33 0 51 -15 246 -207z m1477 -2443 c0 -5 -4 -10 -10 -10 -5 0 -10 5 -10 10 0
6 5 10 10 10 6 0 10 -4 10 -10z m7 -66 c-3 -3 -12 -4 -19 -1 -8 3 -5 6 6 6 11
1 17 -2 13 -5z m-3398 -4954 c9 -7 32 -70 38 -102 3 -16 9 -28 14 -28 5 0 9
-11 9 -25 0 -14 5 -25 10 -25 6 0 10 -7 10 -15 0 -31 -17 -13 -34 38 -21 61
-28 79 -50 130 -9 21 -15 45 -15 55 1 13 2 13 6 -3 3 -11 8 -22 12 -25z m2927
2 c-10 -11 -16 -12 -16 -4 0 7 5 12 10 12 6 0 10 8 11 18 0 11 2 13 6 4 3 -8
-2 -21 -11 -30z m-23 -39 c-7 -3 -13 -12 -14 -21 0 -11 -2 -13 -6 -4 -6 15 17
46 26 36 3 -4 0 -9 -6 -11z m-28 -43 c3 -5 1 -10 -4 -10 -6 0 -11 5 -11 10 0
6 2 10 4 10 3 0 8 -4 11 -10z m-84 -137 c-12 -20 -14 -14 -5 12 4 9 9 14 11
11 3 -2 0 -13 -6 -23z m819 17 c0 -5 -7 -10 -16 -10 -8 0 -12 5 -9 10 3 6 10
10 16 10 5 0 9 -4 9 -10z m-3630 -19 c0 -5 -11 -11 -24 -13 -17 -4 -23 -1 -19
9 6 14 43 18 43 4z m3840 -1 c0 -5 -4 -10 -10 -10 -5 0 -10 5 -10 10 0 6 5 10
10 10 6 0 10 -4 10 -10z m-3733 -32 c-3 -7 -5 -2 -5 12 0 14 2 19 5 13 2 -7 2
-19 0 -25z m-510 16 c-3 -3 -12 -4 -19 -1 -8 3 -5 6 6 6 11 1 17 -2 13 -5z
m13 -34 c0 -5 -9 -10 -20 -10 -11 0 -20 5 -20 10 0 6 9 10 20 10 11 0 20 -4
20 -10z m64 -95 c3 -9 0 -15 -9 -15 -8 0 -15 7 -15 15 0 8 4 15 9 15 5 0 11
-7 15 -15z m-34 -44 c0 -6 -4 -13 -10 -16 -5 -3 -10 1 -10 9 0 9 5 16 10 16 6
0 10 -4 10 -9z m373 -36 c1 -5 -6 -11 -15 -13 -11 -2 -18 3 -18 13 0 17 30 18
33 0z m-320 -32 c-7 -2 -19 -2 -25 0 -7 3 -2 5 12 5 14 0 19 -2 13 -5z m3334
-119 c-3 -3 -12 -4 -19 -1 -8 3 -5 6 6 6 11 1 17 -2 13 -5z"/>
<path d="M9850 11325 c0 -8 4 -15 10 -15 5 0 7 7 4 15 -4 8 -8 15 -10 15 -2 0
-4 -7 -4 -15z"/>
<path d="M10322 10846 c7 -8 15 -12 17 -11 5 6 -10 25 -20 25 -5 0 -4 -6 3
-14z"/>
<path d="M13201 10264 c0 -11 3 -14 6 -6 3 7 2 16 -1 19 -3 4 -6 -2 -5 -13z"/>
<path d="M10841 9894 c0 -11 3 -14 6 -6 3 7 2 16 -1 19 -3 4 -6 -2 -5 -13z"/>
<path d="M6738 9863 c7 -3 16 -2 19 1 4 3 -2 6 -13 5 -11 0 -14 -3 -6 -6z"/>
<path d="M13431 8784 c0 -11 3 -14 6 -6 3 7 2 16 -1 19 -3 4 -6 -2 -5 -13z"/>
<path d="M8670 8770 c0 -5 5 -10 10 -10 6 0 10 5 10 10 0 6 -4 10 -10 10 -5 0
-10 -4 -10 -10z"/>
<path d="M12403 8683 c-15 -5 -17 -23 -4 -23 5 0 11 7 15 15 3 8 4 15 3 14 -1
0 -8 -3 -14 -6z"/>
<path d="M14487 8673 c-4 -3 -55 -10 -113 -14 -59 -5 -112 -13 -118 -17 -6 -5
-40 -10 -76 -11 -36 -1 -69 -6 -74 -11 -6 -6 -23 -10 -38 -10 -16 0 -31 -6
-33 -12 -3 -8 -26 -13 -58 -14 -28 0 -79 -10 -112 -21 -33 -12 -72 -24 -87
-27 -16 -4 -28 -13 -28 -20 0 -8 -11 -21 -25 -30 -30 -20 -35 -20 -35 -1 0 12
-7 14 -27 9 -16 -4 -32 -10 -38 -14 -5 -4 -27 -11 -49 -14 -21 -4 -46 -11 -55
-16 -27 -15 -156 -60 -169 -60 -16 0 -42 -24 -42 -39 0 -6 -4 -11 -10 -11 -5
0 -10 -8 -10 -19 0 -10 -7 -24 -15 -31 -9 -7 -12 -16 -8 -19 15 -11 33 -51 23
-51 -5 0 -10 5 -10 10 0 23 -36 8 -54 -23 -10 -17 -27 -47 -38 -66 -11 -19
-17 -43 -15 -53 4 -13 0 -18 -14 -18 -11 0 -29 -17 -45 -42 -15 -24 -31 -44
-35 -46 -5 -2 -9 -10 -9 -18 0 -8 -4 -14 -10 -14 -5 0 -10 -6 -10 -12 -1 -12
-65 -117 -88 -144 -5 -6 -13 -20 -16 -32 -4 -12 -12 -22 -17 -22 -5 0 -9 -7
-9 -15 0 -8 -3 -15 -8 -15 -4 0 -16 -16 -26 -35 -11 -19 -23 -35 -28 -35 -4 0
-8 -4 -8 -10 0 -11 -146 -222 -185 -266 -5 -7 -19 -24 -30 -39 -11 -16 -32
-42 -47 -59 -15 -17 -37 -48 -50 -68 -13 -21 -28 -38 -35 -38 -6 0 -13 -4 -15
-9 -4 -13 -117 -140 -155 -176 -40 -36 -41 -48 -8 -63 30 -14 231 -16 239 -3
3 4 27 11 53 14 27 4 80 14 118 22 39 9 85 19 103 22 17 3 32 9 32 13 0 4 27
10 60 14 33 4 62 11 65 16 4 6 17 10 30 10 13 0 27 5 30 10 3 6 15 10 26 10
19 0 26 2 87 33 19 9 40 17 47 17 7 0 15 10 19 23 3 12 24 45 46 72 53 64 59
72 94 120 16 22 36 47 43 55 61 67 84 94 128 145 28 32 168 177 313 322 176
177 262 270 262 284 0 16 5 20 20 16 15 -4 36 10 78 50 31 30 67 62 80 70 24
16 32 59 9 50 -10 -4 -12 3 -9 24 4 29 22 41 22 15 0 -7 7 -19 15 -26 10 -9
15 -9 15 -1 0 6 6 11 13 11 22 0 76 54 74 74 -1 13 5 19 22 21 14 1 31 12 39
23 8 12 18 22 23 22 12 0 49 38 48 48 -4 23 4 32 30 32 22 0 32 6 37 22 8 27
28 48 46 48 14 0 78 51 78 63 0 12 -28 8 -33 -5 -4 -10 -7 -10 -15 0 -10 14
-142 14 -142 0 0 -12 -48 -10 -55 2 -7 12 -19 13 -28 3z m-322 -73 c3 -5 1
-10 -4 -10 -6 0 -11 5 -11 10 0 6 2 10 4 10 3 0 8 -4 11 -10z m331 -12 c-3
-13 -6 -26 -6 -30 0 -14 -31 -8 -36 6 -7 17 15 45 35 46 9 0 11 -7 7 -22z
m114 -3 c0 -18 -5 -25 -20 -25 -21 0 -24 8 -14 34 10 25 34 19 34 -9z m-66 -1
c24 -9 19 -24 -9 -24 -18 0 -23 4 -19 15 7 17 7 17 28 9z m-356 -12 c9 -6 6
-12 -13 -20 -22 -10 -25 -9 -25 8 0 21 16 26 38 12z m70 -20 c6 -18 -15 -14
-22 4 -4 10 -1 14 6 12 6 -2 14 -10 16 -16z m62 -32 c0 -5 -7 -10 -16 -10 -8
0 -12 5 -9 10 3 6 10 10 16 10 5 0 9 -4 9 -10z m-313 -37 c-3 -10 -5 -4 -5 12
0 17 2 24 5 18 2 -7 2 -21 0 -30z m413 17 c0 -11 -4 -20 -9 -20 -5 0 -7 9 -4
20 3 11 7 20 9 20 2 0 4 -9 4 -20z m-363 -12 c-3 -8 -6 -5 -6 6 -1 11 2 17 5
13 3 -3 4 -12 1 -19z m406 -45 c-7 -2 -21 -2 -30 0 -10 3 -4 5 12 5 17 0 24
-2 18 -5z m-89 -24 c18 -4 17 -5 -6 -16 -32 -15 -57 -2 -37 20 8 8 16 11 19 7
3 -4 14 -9 24 -11z m-344 -66 c0 -10 -7 -26 -14 -36 -13 -17 -14 -17 -20 0 -4
10 -2 19 3 21 6 2 11 10 11 18 0 8 5 14 10 14 6 0 10 -8 10 -17z m350 8 c0 -9
-23 -21 -41 -21 -4 0 -6 7 -3 15 7 16 44 21 44 6z m-253 -38 c-3 -2 -16 -6
-29 -7 -17 -2 -24 2 -25 16 -1 10 2 16 8 13 5 -3 17 -2 26 4 14 7 19 6 21 -5
2 -9 2 -18 -1 -21z m-360 21 c-3 -3 -12 -4 -19 -1 -8 3 -5 6 6 6 11 1 17 -2
13 -5z m153 -4 c12 -7 10 -12 -9 -29 -33 -29 -41 -26 -28 9 12 33 15 34 37 20z
m-580 -35 c14 -16 10 -18 -14 -9 -9 3 -16 10 -16 15 0 14 16 11 30 -6z m400 5
c0 -5 -4 -10 -10 -10 -5 0 -10 5 -10 10 0 6 5 10 10 10 6 0 10 -4 10 -10z m90
1 c0 -5 -9 -11 -20 -14 -13 -3 -20 0 -20 9 0 8 9 14 20 14 11 0 20 -4 20 -9z
m230 -33 c0 -5 -7 -3 -15 6 -8 8 -15 18 -15 22 0 3 7 1 15 -6 8 -7 15 -17 15
-22z m-542 -9 c-2 -6 -8 -10 -13 -10 -5 0 -11 4 -13 10 -2 6 4 11 13 11 9 0
15 -5 13 -11z m732 -9 c0 -5 -7 -10 -15 -10 -8 0 -15 5 -15 10 0 6 7 10 15 10
8 0 15 -4 15 -10z m-155 -30 c-3 -5 -14 -10 -23 -10 -15 0 -15 2 -2 10 20 13
33 13 25 0z m-242 -7 c-7 -2 -19 -2 -25 0 -7 3 -2 5 12 5 14 0 19 -2 13 -5z
m57 -3 c0 -5 -2 -10 -4 -10 -3 0 -8 5 -11 10 -3 6 -1 10 4 10 6 0 11 -4 11
-10z m-313 -16 c-3 -3 -12 -4 -19 -1 -8 3 -5 6 6 6 11 1 17 -2 13 -5z m23 -54
c0 -5 -4 -10 -10 -10 -5 0 -10 5 -10 10 0 6 5 10 10 10 6 0 10 -4 10 -10z
m463 -27 c-7 -2 -19 -2 -25 0 -7 3 -2 5 12 5 14 0 19 -2 13 -5z m-73 -34 c0
-10 -34 -12 -43 -2 -4 3 -2 12 4 20 9 10 15 10 25 2 8 -6 14 -15 14 -20z
m-136 6 c-6 -16 -34 -21 -34 -7 0 13 11 22 26 22 8 0 11 -6 8 -15z m-306 -12
c2 -8 -5 -13 -17 -13 -12 0 -21 6 -21 16 0 18 31 15 38 -3z m82 7 c0 -5 -7
-10 -15 -10 -8 0 -15 5 -15 10 0 6 7 10 15 10 8 0 15 -4 15 -10z m160 -6 c0
-2 -11 -4 -25 -4 -14 0 -25 4 -25 9 0 4 11 6 25 3 14 -2 25 -6 25 -8z m-360
-4 c0 -5 -7 -10 -16 -10 -8 0 -12 5 -9 10 3 6 10 10 16 10 5 0 9 -4 9 -10z
m-173 -6 c-3 -3 -12 -4 -19 -1 -8 3 -5 6 6 6 11 1 17 -2 13 -5z m116 -1 c-7
-2 -19 -2 -25 0 -7 3 -2 5 12 5 14 0 19 -2 13 -5z"/>
<path d="M5260 8621 c0 -11 28 -41 38 -41 4 0 34 -25 66 -55 45 -42 67 -55 90
-55 24 0 28 -3 16 -10 -16 -10 9 -36 180 -190 40 -36 102 -92 138 -125 85 -78
362 -348 460 -449 43 -43 111 -113 152 -155 41 -43 92 -97 113 -122 20 -24 50
-58 65 -75 15 -16 41 -47 57 -69 17 -21 36 -44 43 -51 6 -7 12 -15 12 -19 0
-3 11 -16 25 -29 14 -13 25 -26 25 -30 0 -4 6 -14 13 -21 27 -31 37 -44 37
-51 0 -13 46 -47 90 -66 25 -11 61 -26 80 -35 19 -8 53 -24 76 -34 22 -10 46
-19 52 -19 7 0 12 -4 12 -10 0 -5 8 -10 18 -10 9 0 30 -7 46 -15 15 -8 35 -15
42 -15 8 0 14 -3 14 -7 0 -5 21 -16 48 -27 26 -10 92 -40 147 -66 225 -108
296 -140 305 -140 6 0 10 -4 10 -8 0 -4 23 -16 50 -27 28 -11 50 -23 50 -27 0
-4 7 -8 15 -8 9 0 33 -11 55 -25 22 -14 46 -25 55 -25 8 0 15 -4 15 -10 0 -5
16 -12 35 -16 19 -3 35 -10 35 -15 0 -5 7 -9 15 -9 8 0 15 -3 15 -8 0 -10 81
-44 88 -37 4 3 -16 25 -43 48 -27 23 -61 55 -75 71 -14 15 -46 50 -72 76 -27
26 -48 52 -48 59 0 6 -3 11 -7 11 -5 0 -19 16 -32 35 -13 19 -32 44 -42 56
-11 12 -19 25 -19 29 0 4 -16 23 -35 43 -19 20 -35 45 -35 57 0 11 -4 20 -8
20 -5 0 -17 20 -28 45 -10 25 -22 45 -26 45 -4 0 -8 5 -8 10 0 6 -11 33 -25
62 -14 28 -25 58 -25 65 0 7 -4 13 -10 13 -5 0 -10 7 -10 15 0 14 -23 92 -39
130 -22 52 -42 142 -61 270 -21 144 -41 231 -61 260 -4 6 -10 25 -14 43 -3 17
-11 32 -16 32 -5 0 -9 9 -9 19 0 19 -84 81 -108 81 -7 0 -12 4 -12 9 0 5 -26
21 -57 37 -32 16 -60 31 -63 34 -9 9 -85 51 -102 57 -10 3 -18 9 -18 14 0 5
-4 9 -10 9 -17 0 -90 34 -90 42 0 5 -8 8 -17 8 -10 0 -27 7 -37 15 -11 8 -28
15 -38 15 -10 0 -18 5 -18 10 0 6 -5 10 -10 10 -6 0 -43 15 -83 34 -122 57
-144 66 -161 66 -9 0 -16 5 -16 10 0 6 -8 10 -18 10 -10 0 -22 3 -25 6 -10 10
-109 43 -129 44 -10 0 -18 4 -18 9 0 5 -18 11 -40 15 -23 3 -49 10 -58 15 -9
5 -37 15 -62 21 -25 7 -54 16 -65 21 -11 4 -45 13 -75 19 -30 6 -75 15 -100
21 -73 16 -219 40 -310 51 -123 14 -410 21 -410 9z m2037 -1533 c-3 -8 -6 -5
-6 6 -1 11 2 17 5 13 3 -3 4 -12 1 -19z"/>
<path d="M12120 8419 c0 -5 5 -7 10 -4 6 3 10 8 10 11 0 2 -4 4 -10 4 -5 0
-10 -5 -10 -11z"/>
<path d="M12630 8210 c0 -5 5 -10 10 -10 6 0 10 5 10 10 0 6 -4 10 -10 10 -5
0 -10 -4 -10 -10z"/>
<path d="M4128 7523 c7 -3 16 -2 19 1 4 3 -2 6 -13 5 -11 0 -14 -3 -6 -6z"/>
<path d="M11250 7510 c0 -5 5 -10 11 -10 5 0 7 5 4 10 -3 6 -8 10 -11 10 -2 0
-4 -4 -4 -10z"/>
<path d="M5108 7473 c6 -2 18 -2 25 0 6 3 1 5 -13 5 -14 0 -19 -2 -12 -5z"/>
<path d="M5490 7412 c0 -6 3 -12 8 -14 4 -1 32 -32 62 -68 59 -69 96 -112 120
-139 8 -9 28 -35 44 -56 17 -22 33 -42 36 -45 4 -3 15 -20 25 -37 11 -18 23
-33 27 -33 4 0 8 -6 8 -14 0 -8 3 -16 8 -18 8 -3 72 -96 72 -104 0 -3 8 -14
19 -25 10 -11 27 -37 37 -57 11 -20 22 -38 27 -40 4 -2 7 -8 7 -13 0 -6 17
-36 37 -67 38 -57 43 -67 58 -109 4 -13 10 -23 14 -23 4 0 15 -20 26 -45 11
-25 23 -45 28 -45 4 0 7 -7 7 -15 0 -23 67 -125 82 -125 9 0 9 -3 -1 -9 -13
-8 -10 -19 15 -68 16 -32 34 -57 39 -56 6 1 10 -17 10 -40 0 -23 6 -42 13 -45
6 -2 12 -15 12 -28 0 -13 5 -24 10 -24 6 0 10 -8 10 -17 1 -21 22 -67 63 -135
21 -35 33 -45 45 -41 15 6 15 4 4 -9 -11 -14 -9 -23 15 -60 15 -23 36 -52 45
-63 101 -121 152 -177 169 -186 25 -13 162 -39 200 -38 66 2 209 -14 218 -25
13 -16 29 -135 23 -183 -4 -43 13 -113 28 -113 5 0 20 -10 34 -22 35 -33 45
-40 106 -72 87 -47 103 -54 145 -64 22 -6 58 -15 80 -20 170 -43 360 -68 615
-81 201 -11 549 -3 568 11 8 7 12 7 12 -1 0 -13 32 -15 45 -2 6 5 55 11 110
14 140 7 298 32 329 52 16 10 26 13 26 6 0 -13 46 -15 54 -2 3 4 27 11 53 15
82 10 181 31 189 39 4 4 38 7 75 7 37 0 71 5 74 11 4 5 19 8 33 4 15 -3 65 2
112 11 47 9 100 18 118 21 17 3 32 11 32 18 0 8 10 11 28 7 l27 -5 -34 37
c-19 20 -40 36 -45 36 -6 0 -20 11 -31 24 -11 13 -31 26 -44 28 -13 1 -29 12
-35 23 -15 27 -69 75 -121 109 -17 11 -35 24 -41 30 -6 6 -27 22 -47 36 -20
14 -37 28 -37 33 0 4 -7 7 -15 7 -8 0 -15 3 -15 8 0 4 -16 16 -35 26 -19 11
-35 22 -35 25 0 4 -16 15 -35 25 -19 11 -35 22 -35 26 0 5 -11 11 -25 14 -14
4 -25 11 -25 16 0 6 -6 10 -13 10 -7 0 -19 9 -27 20 -8 11 -19 20 -26 20 -6 0
-24 11 -40 25 -16 14 -37 28 -46 31 -10 3 -18 10 -18 15 0 5 -7 9 -15 9 -8 0
-15 4 -15 8 0 5 -15 16 -32 26 -46 24 -69 38 -105 64 -17 12 -36 22 -41 22 -6
0 -12 4 -14 8 -1 5 -37 28 -78 52 -41 24 -76 47 -78 52 -2 4 -9 8 -16 8 -6 0
-28 11 -47 24 -20 14 -58 37 -85 52 -27 15 -51 30 -54 33 -3 4 -24 15 -47 25
-24 11 -43 23 -43 28 0 4 -4 8 -9 8 -5 0 -57 27 -116 60 -59 33 -111 60 -115
60 -5 0 -10 3 -12 8 -4 10 -67 42 -84 42 -8 0 -14 4 -14 8 0 5 -19 17 -42 28
-24 10 -46 22 -49 27 -4 5 -19 10 -35 11 -17 1 -43 15 -61 33 -18 17 -45 34
-60 38 -15 3 -30 10 -33 13 -3 4 -41 25 -85 47 -44 22 -81 43 -83 48 -2 4 -9
7 -14 7 -10 0 -318 147 -390 186 -14 8 -33 14 -42 14 -9 0 -16 5 -16 10 0 6
-4 10 -10 10 -9 0 -62 24 -257 116 -40 19 -80 34 -88 34 -8 0 -15 3 -15 8 0 4
-19 13 -42 20 -24 7 -80 31 -124 53 -45 21 -89 39 -98 39 -9 0 -16 5 -16 10 0
6 -9 10 -19 10 -11 0 -22 4 -26 9 -3 5 -20 13 -37 17 -18 3 -40 10 -50 15 -10
5 -26 13 -37 18 -10 5 -35 13 -55 16 -20 4 -39 11 -42 16 -3 5 -15 9 -28 9
-12 0 -26 4 -32 8 -11 10 -67 28 -114 37 -19 4 -39 11 -45 15 -5 4 -23 10 -40
13 -16 3 -57 13 -90 22 -33 9 -77 19 -97 22 -21 3 -38 9 -38 14 0 5 -16 9 -35
9 -19 0 -43 4 -53 10 -9 5 -44 14 -77 19 -33 6 -82 15 -110 21 -99 22 -105 22
-105 12z m770 -1037 c0 -8 -7 -15 -15 -15 -16 0 -20 12 -8 23 11 12 23 8 23
-8z m500 -105 c0 -5 -5 -10 -11 -10 -5 0 -7 5 -4 10 3 6 8 10 11 10 2 0 4 -4
4 -10z m2093 -741 c-7 -7 -12 -3 -15 16 -5 25 -4 25 10 11 12 -11 13 -19 5
-27z m467 -479 c0 -5 -4 -10 -10 -10 -5 0 -10 5 -10 10 0 6 5 10 10 10 6 0 10
-4 10 -10z"/>
<path d="M11175 7399 c-4 -6 -5 -12 -2 -15 2 -3 7 2 10 11 7 17 1 20 -8 4z"/>
<path d="M14478 7403 c7 -3 16 -2 19 1 4 3 -2 6 -13 5 -11 0 -14 -3 -6 -6z"/>
<path d="M15648 7403 c12 -2 22 -9 22 -14 0 -5 7 -9 15 -9 8 0 15 4 15 9 0 10
-36 21 -60 20 -8 -1 -5 -4 8 -6z"/>
<path d="M13648 7233 c7 -3 16 -2 19 1 4 3 -2 6 -13 5 -11 0 -14 -3 -6 -6z"/>
<path d="M10870 7220 c0 -5 5 -10 10 -10 6 0 10 5 10 10 0 6 -4 10 -10 10 -5
0 -10 -4 -10 -10z"/>
<path d="M15218 7183 c7 -3 16 -2 19 1 4 3 -2 6 -13 5 -11 0 -14 -3 -6 -6z"/>
<path d="M10791 7094 c0 -11 3 -14 6 -6 3 7 2 16 -1 19 -3 4 -6 -2 -5 -13z"/>
<path d="M14800 6840 c0 -5 7 -7 15 -4 8 4 15 8 15 10 0 2 -7 4 -15 4 -8 0
-15 -4 -15 -10z"/>
<path d="M10741 6474 c0 -11 3 -14 6 -6 3 7 2 16 -1 19 -3 4 -6 -2 -5 -13z"/>
<path d="M9038 5923 c7 -3 16 -2 19 1 4 3 -2 6 -13 5 -11 0 -14 -3 -6 -6z"/>
<path d="M10860 5913 c-58 -9 -106 -20 -108 -25 -2 -4 -8 -8 -13 -8 -13 0 -20
-7 -149 -133 -61 -59 -110 -114 -110 -122 0 -7 -4 -15 -8 -17 -4 -1 -21 -21
-37 -43 -17 -22 -33 -44 -37 -50 -43 -58 -121 -151 -180 -217 -27 -29 -48 -55
-48 -59 0 -3 -16 -14 -35 -25 -19 -10 -37 -25 -40 -33 -10 -25 45 -48 122 -50
23 0 45 -5 48 -11 3 -5 19 -10 35 -10 16 0 50 -4 77 -10 91 -18 198 -33 253
-36 77 -4 148 -12 157 -17 5 -3 81 -8 171 -11 139 -4 164 -3 169 10 5 13 8 13
24 -2 15 -13 45 -17 171 -19 183 -4 500 12 508 25 3 5 21 5 42 1 20 -5 40 -6
43 -3 4 4 34 10 68 14 179 20 253 31 262 39 5 5 30 9 56 9 26 0 50 4 53 9 3 5
30 12 61 16 30 3 57 11 60 16 4 5 19 9 35 9 38 0 82 20 76 35 -3 9 16 12 67
11 47 0 72 4 75 12 2 7 15 12 28 12 15 0 24 6 24 15 0 11 7 14 25 9 20 -5 25
-2 31 20 5 21 8 23 19 12 15 -14 65 -10 65 5 0 5 5 9 12 9 29 0 88 35 88 52 0
21 11 23 28 6 9 -9 16 -8 30 5 10 9 26 17 35 17 16 0 54 17 67 30 11 11 73 40
86 40 8 0 14 5 14 10 0 6 6 10 13 10 13 0 48 32 72 65 13 18 14 18 15 3 0 -17
20 -27 20 -10 0 4 16 16 35 26 19 11 35 23 35 28 0 4 5 8 10 8 6 0 23 11 38
25 15 14 31 25 35 25 9 0 37 25 37 34 0 5 -32 2 -70 -7 -14 -4 -39 -8 -57 -11
-17 -2 -46 -12 -64 -23 -22 -13 -33 -15 -36 -6 -3 9 -13 9 -41 -1 -20 -7 -64
-14 -97 -15 -33 -1 -61 -6 -63 -11 -2 -6 -25 -10 -51 -10 -60 0 -108 -16 -114
-38 -4 -15 -5 -15 -6 1 -1 13 -10 17 -46 17 -25 0 -45 -3 -45 -8 0 -4 -19 -8
-42 -8 -80 -2 -203 -15 -241 -26 -27 -8 -43 -8 -60 0 -30 14 -185 62 -203 62
-8 0 -14 4 -14 9 0 4 -32 13 -70 20 -39 6 -93 22 -120 35 -28 13 -73 27 -102
31 -29 4 -57 11 -63 15 -5 4 -21 10 -35 13 -55 11 -186 47 -205 56 -30 14
-359 98 -425 108 -19 3 -37 9 -40 12 -7 10 -162 33 -245 36 -38 2 -117 -4
-175 -12z m1270 -379 c0 -14 -3 -14 -15 -4 -8 7 -15 14 -15 16 0 2 7 4 15 4 8
0 15 -7 15 -16z m-1199 -37 c-10 -9 -11 -8 -5 6 3 10 9 15 12 12 3 -3 0 -11
-7 -18z m142 -12 c-7 -21 -13 -19 -13 6 0 11 4 18 10 14 5 -3 7 -12 3 -20z
m967 15 c0 -5 -5 -10 -11 -10 -5 0 -7 5 -4 10 3 6 8 10 11 10 2 0 4 -4 4 -10z
m830 -60 c0 -5 -4 -10 -10 -10 -5 0 -10 5 -10 10 0 6 5 10 10 10 6 0 10 -4 10
-10z m210 -20 c8 -5 11 -12 7 -17 -5 -4 -12 -1 -18 7 -8 13 -10 13 -18 0 -6
-8 -13 -11 -18 -7 -6 7 13 27 27 27 3 0 12 -4 20 -10z m-2140 -10 c0 -5 -4
-10 -10 -10 -5 0 -10 5 -10 10 0 6 5 10 10 10 6 0 10 -4 10 -10z m1325 -19
c-6 -5 -25 10 -25 20 0 5 6 4 14 -3 8 -7 12 -15 11 -17z m-995 0 c0 -17 -18
-21 -24 -6 -3 9 0 15 9 15 8 0 15 -4 15 -9z m1677 -37 c-3 -3 -12 -4 -19 -1
-8 3 -5 6 6 6 11 1 17 -2 13 -5z m-1267 -8 c0 -3 -4 -8 -10 -11 -5 -3 -10 -1
-10 4 0 6 5 11 10 11 6 0 10 -2 10 -4z m580 -31 c10 -12 10 -15 -4 -15 -9 0
-16 7 -16 15 0 8 2 15 4 15 2 0 9 -7 16 -15z m-176 -30 c-4 -8 -8 -15 -10 -15
-2 0 -4 7 -4 15 0 8 4 15 10 15 5 0 7 -7 4 -15z m535 -47 c1 -5 -3 -8 -9 -8
-5 0 -10 12 -9 28 0 24 1 25 9 7 5 -11 9 -23 9 -27z m-592 -10 c-3 -8 -6 -5
-6 6 -1 11 2 17 5 13 3 -3 4 -12 1 -19z m43 -58 c0 -5 -4 -10 -10 -10 -5 0
-10 5 -10 10 0 6 5 10 10 10 6 0 10 -4 10 -10z m-120 -14 c0 -3 -4 -8 -10 -11
-5 -3 -10 -1 -10 4 0 6 5 11 10 11 6 0 10 -2 10 -4z m40 -67 c0 -6 -4 -7 -10
-4 -5 3 -10 11 -10 16 0 6 5 7 10 4 6 -3 10 -11 10 -16z m-1000 -19 c0 -5 -9
-10 -21 -10 -11 0 -17 5 -14 10 3 6 13 10 21 10 8 0 14 -4 14 -10z"/>
<path d="M11740 5832 c0 -5 7 -13 16 -16 10 -4 14 -1 12 6 -5 15 -28 23 -28
10z"/>
<path d="M10607 5816 c-4 -10 -1 -13 9 -9 15 6 19 23 5 23 -5 0 -11 -7 -14
-14z"/>
<path d="M6160 5756 c0 -2 7 -9 15 -16 12 -10 15 -10 15 4 0 9 -7 16 -15 16
-8 0 -15 -2 -15 -4z"/>
<path d="M9352 5728 c2 -6 10 -14 16 -16 7 -2 10 2 6 12 -7 18 -28 22 -22 4z"/>
<path d="M9390 5701 c0 -10 19 -25 25 -20 1 2 -3 10 -11 17 -8 7 -14 8 -14 3z"/>
<path d="M12838 5613 c7 -3 16 -2 19 1 4 3 -2 6 -13 5 -11 0 -14 -3 -6 -6z"/>
<path d="M6771 5422 c-8 -3 -11 -106 -11 -328 l0 -324 -292 -1 c-364 -2 -312
2 -448 -36 -56 -16 -161 -60 -170 -72 -3 -3 -21 -15 -40 -25 -19 -11 -44 -28
-55 -39 -11 -10 -31 -25 -45 -33 -14 -9 -47 -45 -75 -81 -27 -35 -55 -71 -62
-78 -7 -7 -15 -24 -19 -39 -3 -14 -10 -26 -15 -26 -5 0 -9 -7 -9 -15 0 -8 -4
-15 -10 -15 -5 0 -10 -10 -10 -22 -1 -13 -7 -34 -15 -48 -8 -14 -14 -37 -15
-52 0 -16 -4 -28 -9 -28 -5 0 -12 -26 -16 -57 -14 -111 -5 -323 15 -323 4 0
10 -21 13 -47 6 -50 27 -103 40 -103 4 0 7 -9 7 -20 0 -11 5 -20 10 -20 6 0
10 -6 10 -14 0 -8 11 -28 25 -44 14 -17 25 -34 25 -38 0 -14 76 -94 89 -94 6
0 11 -5 11 -11 0 -11 54 -69 65 -69 3 0 14 -8 25 -17 18 -17 129 -76 180 -96
14 -5 33 -13 42 -18 10 -5 31 -9 47 -9 17 0 32 -4 35 -9 10 -15 246 -20 304
-6 19 5 21 9 12 25 -8 15 -7 25 3 41 14 19 15 18 21 -16 6 -30 10 -34 22 -25
10 9 14 9 14 1 0 -8 8 -7 28 1 146 59 152 62 158 81 4 13 12 17 26 14 14 -4
22 0 25 14 3 10 9 20 14 20 5 1 13 2 19 3 17 2 70 50 70 63 0 7 5 13 10 13 20
0 110 107 110 129 0 6 4 11 10 11 5 0 12 11 16 25 3 14 10 25 15 25 5 0 9 9 9
20 0 11 5 20 10 20 6 0 10 9 10 19 0 11 4 22 9 26 6 3 13 27 17 53 4 26 12 50
18 54 8 5 11 236 11 825 l0 818 -137 0 c-75 0 -141 -1 -147 -3z m-514 -798
c-3 -3 -12 -4 -19 -1 -8 3 -5 6 6 6 11 1 17 -2 13 -5z m-240 -46 c-3 -8 -6 -5
-6 6 -1 11 2 17 5 13 3 -3 4 -12 1 -19z m290 0 c-3 -8 -6 -5 -6 6 -1 11 2 17
5 13 3 -3 4 -12 1 -19z m-290 -70 c-3 -8 -6 -5 -6 6 -1 11 2 17 5 13 3 -3 4
-12 1 -19z m743 -342 c0 -193 -4 -307 -10 -311 -5 -3 -10 -15 -10 -25 0 -35
-54 -145 -87 -177 -18 -18 -33 -39 -33 -48 0 -8 -7 -15 -15 -15 -8 0 -25 -11
-39 -25 -14 -14 -30 -25 -36 -25 -5 0 -10 -4 -10 -8 0 -22 -158 -72 -228 -72
-33 0 -63 -5 -70 -12 -9 -9 -15 -10 -20 -2 -4 6 -23 15 -42 18 -48 10 -142 47
-158 63 -7 7 -20 13 -28 13 -8 0 -14 3 -14 8 -1 4 -25 25 -54 47 -29 22 -58
51 -64 65 -6 14 -17 36 -26 50 -25 42 -46 92 -46 111 0 10 -4 21 -10 24 -6 4
-10 55 -10 120 0 65 4 116 10 120 6 3 10 15 10 26 0 10 4 27 10 37 5 9 17 34
26 55 9 20 20 37 25 37 5 0 9 6 9 13 0 16 55 74 106 113 21 16 41 31 44 34 8
8 80 36 125 49 60 16 86 18 378 19 l267 2 0 -304z m-310 -716 c0 -5 -8 -10
-17 -10 -15 0 -16 2 -3 10 19 12 20 12 20 0z m190 -141 c0 -11 -4 -17 -10 -14
-5 3 -10 13 -10 21 0 8 5 14 10 14 6 0 10 -9 10 -21z m-383 -96 c-3 -10 -5 -2
-5 17 0 19 2 27 5 18 2 -10 2 -26 0 -35z"/>
<path d="M9920 5310 c0 -5 5 -10 11 -10 5 0 7 5 4 10 -3 6 -8 10 -11 10 -2 0
-4 -4 -4 -10z"/>
<path d="M3260 3966 c0 -758 1 -805 18 -809 25 -7 254 -8 274 -1 17 5 18 46
18 725 0 395 -4 719 -8 719 -10 0 -9 66 1 76 4 4 7 27 7 51 l0 43 -155 0 -155
0 0 -804z m206 -461 c-14 -14 -16 -14 -16 -2 0 9 6 17 13 20 19 7 21 -1 3 -18z"/>
<path d="M4399 4765 c-4 -3 -35 -10 -70 -16 -35 -6 -68 -14 -73 -20 -6 -5 -20
-9 -32 -9 -13 0 -25 -4 -29 -9 -3 -5 -19 -12 -35 -16 -17 -4 -30 -10 -30 -14
0 -4 -16 -13 -35 -21 -19 -8 -35 -17 -35 -21 0 -4 -9 -10 -20 -14 -49 -16
-250 -242 -250 -282 0 -7 -3 -13 -8 -13 -9 0 -42 -74 -42 -94 0 -8 -4 -18 -10
-21 -5 -3 -10 -21 -10 -40 0 -18 -6 -35 -12 -37 -10 -4 -13 -100 -13 -439 0
-239 2 -445 4 -459 2 -14 1 -40 -3 -58 l-8 -32 151 1 150 1 0 435 c1 416 4
469 31 538 13 33 40 89 53 110 21 35 147 155 162 155 8 0 15 3 15 8 0 8 34 23
107 46 70 22 219 21 292 -1 31 -10 58 -20 61 -23 3 -3 18 -11 34 -18 27 -12
95 -61 121 -87 46 -45 115 -167 115 -202 0 -10 5 -24 12 -31 9 -9 12 -128 12
-469 l1 -458 118 -2 c81 -1 117 2 117 10 0 8 4 7 12 -1 7 -7 23 -12 37 -12 19
0 22 3 13 12 -7 7 -8 17 -1 29 13 25 6 868 -8 934 -15 71 -33 128 -44 139 -5
6 -9 18 -9 28 0 10 -3 18 -7 18 -5 0 -17 20 -28 45 -11 25 -23 45 -27 45 -5 0
-8 6 -8 13 0 32 -225 237 -260 237 -5 0 -10 4 -10 8 0 9 -112 62 -132 62 -8 0
-18 4 -23 9 -23 22 -329 54 -346 36z m751 -1121 c0 -8 -4 -12 -10 -9 -5 3 -10
10 -10 16 0 5 5 9 10 9 6 0 10 -7 10 -16z m70 -286 c0 -5 -7 -3 -15 6 -8 8
-15 18 -15 22 0 3 7 1 15 -6 8 -7 15 -17 15 -22z"/>
<path d="M7282 4758 c-18 -18 -17 -1594 1 -1601 6 -2 75 -4 152 -3 l140 2 3
139 c2 104 -1 140 -10 146 -10 7 -10 11 0 21 17 17 17 449 0 466 -8 8 -8 15 1
26 9 10 11 116 10 415 l-1 401 -142 0 c-97 0 -146 -4 -154 -12z m55 -44 c-3
-3 -12 -4 -19 -1 -8 3 -5 6 6 6 11 1 17 -2 13 -5z m180 -38 c-7 -14 -13 -23
-15 -21 -7 6 9 45 18 45 4 0 3 -11 -3 -24z"/>
<path d="M8480 4760 c0 -5 -17 -8 -37 -7 -42 2 -55 -19 -28 -47 13 -12 13 -16
3 -16 -8 0 -22 14 -32 30 -16 28 -21 30 -54 24 -20 -3 -41 -10 -46 -15 -6 -5
-18 -9 -28 -9 -25 0 -168 -69 -168 -80 0 -6 -6 -10 -14 -10 -8 0 -21 -6 -28
-12 -7 -7 -31 -26 -53 -43 -49 -36 -81 -68 -119 -120 -17 -22 -33 -42 -36 -45
-14 -12 -90 -173 -90 -191 0 -11 -4 -27 -9 -37 -5 -9 -15 -42 -21 -72 -17 -81
-2 -380 20 -380 4 0 10 -18 14 -39 6 -40 71 -173 87 -179 5 -2 9 -10 9 -17 0
-24 210 -225 235 -225 4 0 19 -8 33 -18 24 -16 64 -34 137 -62 76 -29 120 -35
260 -35 180 0 208 7 367 85 47 23 99 53 115 67 79 66 183 169 183 181 0 14
-192 212 -204 212 -4 0 -42 -36 -85 -80 -44 -44 -84 -80 -90 -80 -5 0 -16 -6
-23 -13 -27 -26 -115 -60 -183 -69 -108 -15 -259 7 -300 45 -10 9 70 95 374
398 212 213 414 416 449 453 l63 67 -25 20 c-14 11 -26 26 -26 34 0 11 -44 55
-122 121 -14 12 -35 25 -47 29 -18 5 -21 2 -22 -27 -2 -30 -2 -31 -6 -5 -2 15
-8 27 -13 27 -4 0 -7 8 -6 18 0 10 -6 16 -16 16 -10 -1 -18 5 -18 12 0 8 -12
19 -27 24 -16 6 -37 14 -48 19 -49 20 -98 32 -196 46 -124 18 -129 18 -129 5z
m145 -311 c6 -4 28 -11 50 -15 22 -4 46 -13 53 -21 16 -16 16 -15 -61 -95 -39
-41 -47 -54 -34 -56 9 -2 17 -10 17 -19 0 -11 -7 -13 -30 -8 -35 8 -26 16
-371 -329 -168 -168 -181 -178 -194 -160 -8 10 -15 27 -15 36 0 9 -6 18 -12
21 -10 3 -13 43 -13 157 0 114 3 154 13 158 6 2 12 14 12 27 0 13 3 25 8 27 4
2 16 20 27 42 23 46 134 161 164 171 12 3 21 11 21 16 0 5 9 9 20 9 11 0 20 4
20 8 0 32 288 60 325 31z"/>
<path d="M9694 4757 c-9 -24 3 -892 13 -947 6 -30 16 -72 23 -93 18 -60 82
-179 113 -209 15 -15 27 -31 27 -35 0 -12 68 -83 79 -83 5 0 12 -8 16 -19 3
-10 20 -29 37 -42 17 -13 40 -32 51 -41 11 -10 26 -18 34 -18 7 0 13 -4 13
-10 0 -5 16 -12 35 -16 19 -3 35 -10 35 -14 0 -4 15 -13 33 -20 17 -7 41 -16
52 -20 21 -9 43 -14 135 -31 64 -13 279 -4 294 11 5 5 20 10 33 10 13 0 31 4
41 9 34 18 90 41 101 41 6 0 11 3 11 8 0 4 18 16 40 26 22 10 47 27 56 38 19
20 39 23 49 7 8 -12 -23 -159 -37 -173 -4 -6 -8 -20 -8 -32 0 -13 -7 -29 -15
-38 -8 -8 -15 -19 -15 -25 0 -6 -4 -11 -10 -11 -5 0 -10 -5 -10 -10 0 -24
-125 -148 -156 -156 -13 -3 -24 -9 -24 -13 0 -7 -65 -27 -163 -50 -26 -6 -88
-11 -137 -11 l-91 0 2 -145 2 -145 141 0 c178 1 262 21 249 58 -6 15 -4 15 14
-1 20 -18 23 -18 66 2 25 12 51 21 56 21 6 0 11 5 11 10 0 6 7 10 15 10 8 0
15 5 15 10 0 6 6 10 13 10 7 0 24 11 39 25 15 14 30 25 32 25 31 0 206 210
206 248 0 6 5 12 10 12 6 0 10 6 10 13 0 7 10 33 21 57 12 24 24 62 27 85 3
22 10 43 16 47 8 5 12 243 13 823 l2 815 -40 0 c-21 0 -39 -4 -39 -10 0 -5 -9
-10 -19 -10 -11 0 -23 5 -26 10 -3 6 -44 10 -91 10 l-84 0 0 -350 c1 -299 3
-352 16 -365 14 -13 14 -15 0 -15 -10 0 -16 -9 -16 -21 0 -14 5 -19 13 -16 8
3 20 1 28 -4 10 -6 7 -9 -13 -9 -26 0 -28 -2 -27 -48 1 -27 -4 -58 -10 -70 -6
-11 -11 -30 -11 -41 0 -12 -4 -29 -9 -39 -4 -9 -23 -49 -42 -89 -19 -40 -39
-72 -44 -73 -6 0 -22 -12 -36 -27 -32 -36 -77 -70 -111 -86 -16 -6 -28 -15
-28 -19 0 -5 -8 -8 -18 -8 -10 0 -23 -5 -30 -12 -8 -8 -58 -14 -136 -16 -132
-5 -210 10 -268 50 -14 10 -30 18 -36 18 -9 0 -127 113 -147 141 -6 7 -19 31
-28 51 -10 20 -22 40 -27 43 -6 3 -10 16 -10 29 0 12 -4 26 -10 32 -6 6 -12
165 -15 404 -2 217 -5 409 -5 425 -1 17 0 48 2 70 l3 40 -71 3 c-57 2 -75 -1
-89 -14 -16 -16 -18 -17 -27 -1 -11 20 -64 23 -71 5 -4 -10 -6 -10 -6 0 -1 16
-30 16 -37 -1z m163 -869 c-3 -8 -6 -5 -6 6 -1 11 2 17 5 13 3 -3 4 -12 1 -19z
m150 -340 c-3 -7 -5 -2 -5 12 0 14 2 19 5 13 2 -7 2 -19 0 -25z m723 -778 c0
-5 -5 -10 -11 -10 -5 0 -7 5 -4 10 3 6 8 10 11 10 2 0 4 -4 4 -10z m40 -169
c0 -17 -17 -13 -24 5 -10 27 -7 36 9 20 8 -8 15 -19 15 -25z"/>
<path d="M12165 4758 c-38 -5 -83 -16 -98 -24 -16 -8 -33 -12 -37 -9 -15 9
-158 -53 -228 -100 -61 -40 -142 -111 -182 -161 -55 -67 -139 -235 -147 -292
-3 -23 -10 -45 -14 -48 -5 -3 -9 -74 -9 -158 0 -117 4 -161 15 -182 8 -16 15
-43 15 -61 0 -17 5 -35 10 -38 6 -3 10 -15 10 -26 0 -11 7 -19 16 -19 8 0 12
-5 9 -10 -9 -15 27 -88 46 -93 9 -3 20 -19 24 -37 10 -46 196 -230 232 -230 7
0 13 -4 13 -10 0 -5 9 -10 20 -10 11 0 20 -4 20 -10 0 -5 11 -10 24 -10 13 0
29 -6 35 -13 6 -8 30 -19 53 -26 24 -7 54 -18 68 -23 38 -16 266 -21 335 -8
106 20 115 22 115 31 0 5 9 9 19 9 21 0 124 50 129 62 2 5 9 8 17 8 40 0 245
200 245 239 0 6 5 11 10 11 6 0 10 8 10 19 0 10 6 24 14 30 21 17 26 72 8 79
-12 4 -10 7 6 13 12 5 22 15 22 24 0 8 10 26 23 41 30 35 39 78 44 224 4 113
2 129 -17 168 -12 23 -19 49 -16 58 5 14 -30 123 -43 134 -4 3 -15 24 -25 48
-11 23 -23 42 -28 42 -4 0 -8 6 -8 13 0 7 -16 26 -35 42 -19 17 -35 35 -35 41
0 7 -17 26 -37 44 -21 17 -50 42 -65 55 -14 13 -36 26 -47 30 -12 3 -21 11
-21 16 0 5 -9 9 -20 9 -11 0 -29 9 -40 20 -11 11 -31 22 -45 26 -14 3 -28 10
-31 15 -3 5 -15 9 -28 9 -12 0 -26 4 -31 9 -10 9 -213 43 -238 39 -7 0 -43 -5
-82 -10z m583 -260 c-6 -18 -28 -21 -28 -4 0 9 7 16 16 16 9 0 14 -5 12 -12z
m-340 -58 c28 -7 52 -17 52 -21 0 -5 5 -9 10 -9 35 0 190 -128 190 -157 0 -7
4 -13 9 -13 11 0 61 -98 61 -121 0 -10 5 -19 10 -19 6 0 10 -12 10 -26 0 -14
7 -41 16 -60 11 -23 13 -38 6 -47 -5 -6 -13 -42 -17 -79 -3 -37 -11 -70 -16
-73 -5 -4 -9 -15 -9 -25 0 -20 -30 -83 -42 -88 -5 -2 -8 -9 -8 -16 0 -7 -11
-25 -25 -40 -14 -15 -25 -31 -25 -35 0 -5 -10 -15 -22 -24 -13 -8 -34 -24 -47
-36 -13 -11 -30 -21 -37 -21 -7 0 -14 -4 -16 -8 -7 -17 -101 -52 -170 -63 -40
-6 -99 -9 -130 -5 -33 3 -60 2 -63 -4 -9 -15 -25 -12 -25 5 0 8 -7 15 -15 15
-8 0 -23 4 -33 9 -121 61 -115 57 -180 122 -89 90 -102 105 -102 123 0 9 -5
27 -11 38 -31 57 -52 269 -29 283 6 3 10 28 10 55 0 26 3 50 8 52 4 2 25 30
46 63 75 114 174 191 296 229 54 17 219 15 298 -4z m-694 -15 c-4 -8 -12 -15
-20 -15 -8 0 -11 6 -8 15 4 8 12 15 20 15 8 0 11 -6 8 -15z m966 -17 c0 -19
-2 -20 -10 -8 -13 19 -13 30 0 30 6 0 10 -10 10 -22z m120 -174 c0 -8 -4 -12
-10 -9 -5 3 -10 13 -10 21 0 8 5 12 10 9 6 -3 10 -13 10 -21z m-1190 -4 c0 -5
-4 -10 -10 -10 -5 0 -10 5 -10 10 0 6 5 10 10 10 6 0 10 -4 10 -10z m7 -132
c-3 -8 -6 -5 -6 6 -1 11 2 17 5 13 3 -3 4 -12 1 -19z m-67 -8 c0 -17 -2 -19
-14 -8 -14 13 -12 28 5 28 5 0 9 -9 9 -20z m1420 -204 c0 -3 -4 -8 -10 -11 -5
-3 -10 -1 -10 4 0 6 5 11 10 11 6 0 10 -2 10 -4z m-88 -74 c6 -22 -2 -82 -11
-82 -3 0 -6 23 -6 50 0 50 9 66 17 32z m-55 -94 c-3 -7 -5 -2 -5 12 0 14 2 19
5 13 2 -7 2 -19 0 -25z m18 -77 c-3 -6 -11 -11 -16 -11 -5 0 -4 6 3 14 14 16
24 13 13 -3z m-95 -21 c0 -5 -5 -10 -11 -10 -5 0 -7 5 -4 10 3 6 8 10 11 10 2
0 4 -4 4 -10z"/>
<path d="M13875 4758 c-22 -5 -59 -11 -83 -15 -23 -3 -45 -10 -48 -14 -3 -5
-13 -9 -22 -9 -16 0 -113 -44 -137 -63 -5 -4 -29 -20 -52 -35 -59 -38 -113
-90 -113 -107 0 -8 -9 -15 -20 -15 -14 0 -20 -7 -20 -21 0 -20 -21 -49 -37
-49 -17 0 -73 -107 -73 -140 0 -11 -6 -20 -13 -20 -15 0 -37 -72 -42 -135 -2
-22 -8 -41 -14 -43 -15 -5 -14 -115 1 -130 10 -10 10 -17 -1 -33 -9 -15 -10
-24 -2 -32 6 -6 11 -39 11 -73 0 -35 4 -65 9 -68 5 -4 12 -24 16 -45 4 -22 18
-51 31 -64 15 -16 22 -31 18 -41 -4 -9 0 -24 8 -34 7 -9 20 -30 28 -46 8 -17
42 -58 75 -93 33 -35 65 -69 71 -76 6 -6 24 -21 39 -32 16 -11 33 -25 40 -31
6 -6 21 -15 33 -18 12 -4 22 -12 22 -17 0 -5 8 -9 18 -9 10 0 22 -4 28 -9 5
-5 38 -21 73 -35 46 -19 67 -23 72 -15 5 8 13 6 28 -8 28 -26 124 -33 433 -33
l228 0 -6 -27 c-18 -77 -108 -183 -209 -248 -81 -53 -173 -75 -315 -78 l-95
-2 -2 -44 c-1 -24 4 -58 11 -75 11 -26 11 -34 0 -44 -9 -8 -14 -35 -14 -72 0
-52 3 -60 19 -60 22 0 45 25 37 39 -4 5 -2 12 3 15 5 4 12 -7 16 -24 5 -23 12
-30 31 -30 13 0 24 5 24 10 0 6 7 10 15 10 8 0 15 -5 15 -11 0 -14 115 -6 165
10 17 5 50 15 75 21 117 31 211 90 323 203 76 77 87 92 87 123 0 28 4 34 17
32 11 -2 22 6 28 20 5 12 13 22 17 22 5 0 8 8 8 18 0 10 4 22 9 28 5 5 14 27
21 49 18 61 31 107 37 135 7 28 11 792 5 901 -4 57 -9 73 -28 92 -13 12 -24
29 -24 38 0 8 -6 21 -12 27 -10 10 -10 17 -1 31 9 15 9 25 0 45 -7 14 -15 26
-19 26 -5 0 -8 6 -8 13 0 15 -62 106 -106 157 -49 56 -132 130 -146 130 -5 0
-18 9 -30 20 -12 11 -28 20 -36 20 -7 0 -20 7 -28 15 -9 8 -24 15 -35 15 -10
0 -19 4 -19 8 0 8 -44 22 -150 46 -69 16 -217 18 -285 4z m-305 -218 c0 -5 -4
-10 -10 -10 -5 0 -10 5 -10 10 0 6 5 10 10 10 6 0 10 -4 10 -10z m-55 -30 c3
-5 1 -10 -4 -10 -6 0 -11 5 -11 10 0 6 2 10 4 10 3 0 8 -4 11 -10z m-35 -60
c0 -23 -16 -26 -36 -6 -11 11 -11 16 -1 19 25 11 37 6 37 -13z m685 -8 c65
-20 150 -74 200 -126 44 -46 75 -84 75 -91 0 -2 11 -28 24 -57 45 -100 47
-125 46 -431 0 -160 -2 -292 -4 -295 -2 -2 -13 1 -24 7 -14 7 -118 11 -295 11
-231 0 -283 3 -328 17 -104 33 -224 113 -256 171 -9 17 -21 32 -25 32 -5 0 -8
7 -8 15 0 8 -3 15 -8 15 -8 0 -42 74 -42 93 0 7 -4 17 -9 22 -5 6 -12 39 -15
75 -3 36 -5 70 -6 75 -6 56 43 217 78 253 22 24 32 50 26 66 -5 12 -2 15 9 10
10 -3 21 2 29 15 7 12 18 21 25 21 7 0 13 4 13 8 0 5 16 17 35 28 19 10 35 21
35 25 0 4 8 9 18 13 9 3 37 13 62 22 96 35 245 37 345 6z m-808 -424 c-3 -7
-5 -2 -5 12 0 14 2 19 5 13 2 -7 2 -19 0 -25z m-97 -114 c0 -8 -5 -12 -10 -9
-6 4 -8 11 -5 16 9 14 15 11 15 -7z m190 6 c0 -5 -4 -10 -10 -10 -5 0 -10 5
-10 10 0 6 5 10 10 10 6 0 10 -4 10 -10z m1253 -809 c-4 -3 -11 -10 -15 -15
-5 -5 -8 0 -8 12 0 15 4 20 16 15 9 -3 12 -9 7 -12z m-23 -106 c0 -8 -4 -15
-10 -15 -5 0 -10 7 -10 15 0 8 5 15 10 15 6 0 10 -7 10 -15z m-406 -240 c-6
-16 -24 -21 -24 -7 0 11 11 22 21 22 5 0 6 -7 3 -15z m-258 -81 c-3 -9 -6 -25
-7 -37 l0 -22 -9 23 c-5 12 -15 22 -21 22 -8 0 -8 4 1 15 17 20 44 20 36 -1z
m281 0 c-3 -3 -12 -4 -19 -1 -8 3 -5 6 6 6 11 1 17 -2 13 -5z m-290 -131 c-3
-10 -5 -4 -5 12 0 17 2 24 5 18 2 -7 2 -21 0 -30z"/>
<path d="M15620 4760 c-8 -5 -25 -10 -37 -10 -13 0 -23 -6 -23 -14 0 -8 -7
-16 -15 -20 -9 -3 -15 0 -15 9 0 17 -35 20 -45 5 -3 -5 -17 -10 -31 -10 -15 0
-24 -6 -24 -15 0 -9 -6 -15 -12 -14 -19 3 -78 -22 -78 -32 0 -5 -6 -9 -13 -9
-7 0 -29 -11 -50 -25 -32 -22 -35 -28 -25 -44 9 -15 8 -22 -5 -35 -24 -25 -38
-20 -31 12 l7 27 -24 -20 c-59 -50 -129 -133 -129 -153 0 -6 -4 -12 -8 -14
-13 -5 -62 -99 -62 -119 0 -10 -4 -21 -10 -24 -5 -3 -10 -19 -10 -34 0 -16 -7
-34 -15 -41 -8 -7 -15 -27 -15 -46 0 -18 -4 -36 -10 -39 -14 -9 -13 -122 2
-127 8 -3 9 -11 3 -24 -12 -27 -14 -103 -4 -110 5 -3 9 -20 9 -37 1 -50 70
-225 93 -235 4 -2 7 -8 7 -13 0 -21 46 -79 63 -79 10 0 15 -5 12 -10 -3 -6 1
-18 10 -28 48 -53 82 -82 96 -82 8 0 21 -6 28 -12 11 -10 14 -10 18 0 6 15 33
16 33 1 0 -6 -9 -13 -19 -16 -17 -4 -18 -8 -8 -24 6 -10 25 -21 41 -25 16 -3
38 -15 50 -25 42 -40 73 -7 59 62 -6 31 11 46 32 29 20 -16 19 -57 -1 -78 -15
-14 -15 -17 2 -28 11 -8 25 -18 32 -24 8 -7 12 -7 12 -1 0 6 17 10 39 8 43 -3
69 -17 32 -17 -25 0 -24 -18 2 -34 12 -8 23 -7 38 2 15 10 24 11 28 3 4 -6 40
-13 79 -15 57 -3 72 -1 72 10 0 17 22 18 39 2 11 -10 14 -10 18 -1 3 10 9 10
25 0 16 -9 22 -9 25 1 3 6 11 12 19 12 8 0 14 5 14 10 0 6 5 10 10 10 6 0 10
-9 10 -20 0 -29 27 -36 52 -14 15 14 22 16 25 7 8 -23 23 -14 23 13 0 31 23
28 28 -4 4 -25 37 -38 57 -22 9 7 15 8 20 0 7 -11 44 -13 69 -4 10 4 16 18 16
35 0 16 5 29 10 29 7 0 8 -13 4 -36 l-6 -35 53 3 c47 3 54 6 57 26 4 24 32 31
32 7 0 -9 9 -15 24 -15 13 0 26 -6 29 -12 3 -10 9 -9 23 3 10 9 25 14 32 12
11 -4 12 -1 3 15 -8 15 -8 23 0 27 6 4 8 13 5 21 -3 9 2 14 14 14 27 0 25 18
-2 22 -15 2 -23 10 -23 23 0 28 -14 47 -30 41 -7 -2 -25 -2 -39 2 -23 6 -24 9
-13 32 7 14 21 26 32 27 11 2 14 0 8 -3 -7 -3 -13 -14 -13 -25 0 -23 37 -26
65 -5 18 13 18 15 2 39 -19 29 -23 77 -7 77 6 0 10 -13 10 -30 0 -16 4 -30 9
-30 18 0 20 609 2 703 -13 65 -24 76 -33 32 -2 -11 -4 13 -4 53 0 42 -4 76
-11 80 -6 4 -12 16 -14 27 -2 11 -15 25 -29 32 -14 7 -19 13 -12 13 18 0 15
12 -13 44 -14 16 -25 32 -25 36 0 4 -18 25 -39 48 -21 22 -41 46 -43 53 -2 7
-11 10 -20 7 -10 -4 -18 -25 -22 -59 -4 -29 -11 -60 -17 -70 -6 -12 -5 -20 2
-25 7 -4 -1 -12 -21 -20 -37 -16 -70 -18 -70 -5 0 5 -8 12 -17 15 -10 2 0 4
22 3 40 -2 40 -2 40 35 0 25 6 42 19 51 14 11 16 16 6 22 -7 4 -16 2 -22 -6
-7 -11 -8 -9 -6 6 2 11 14 25 26 31 41 21 47 32 20 39 -20 5 -24 11 -20 31 2
14 0 24 -7 24 -6 0 -11 -4 -11 -10 0 -5 -9 -10 -20 -10 -18 0 -25 11 -21 33 2
13 -21 31 -79 58 -80 39 -106 47 -195 64 -97 18 -167 19 -184 3 -11 -10 -14
-10 -18 0 -5 14 -52 16 -73 2z m107 -45 c-4 -8 -11 -15 -17 -15 -14 0 -13 27
3 33 16 6 21 1 14 -18z m-287 -88 c0 -2 -9 -14 -20 -27 -16 -18 -23 -21 -32
-12 -9 9 -9 12 1 12 7 0 19 7 27 15 15 14 24 19 24 12z m103 -9 c21 -11 21
-11 2 -19 -34 -13 -43 -10 -38 11 6 23 7 24 36 8z m367 -82 c0 -3 -4 -8 -10
-11 -5 -3 -10 -1 -10 4 0 6 5 11 10 11 6 0 10 -2 10 -4z m-232 -58 c-2 -7 24
-12 82 -14 73 -3 183 -27 200 -44 3 -3 21 -14 40 -25 34 -18 55 -36 111 -91
l25 -25 33 30 c40 37 45 38 37 8 -3 -14 1 -33 10 -46 21 -29 12 -37 -20 -16
-14 9 -31 15 -38 12 -8 -4 -7 -6 4 -6 9 -1 19 -11 23 -23 18 -68 29 -98 37
-98 4 0 8 9 8 20 0 11 5 20 10 20 14 0 13 -26 -2 -51 -10 -17 -10 -23 -1 -26
10 -4 10 -10 2 -25 -8 -15 -8 -22 0 -27 12 -8 19 -577 7 -588 -3 -3 -25 -5
-48 -5 -24 0 -53 -4 -66 -10 -17 -9 -25 -9 -34 0 -15 15 -51 15 -66 0 -8 -8
-15 -8 -26 1 -10 8 -49 11 -122 9 -88 -2 -112 -6 -126 -20 -15 -15 -18 -16
-18 -3 0 26 -29 29 -49 6 -21 -24 -41 -28 -41 -7 0 7 -7 19 -15 26 -12 10 -16
9 -21 -4 -6 -15 -8 -14 -21 4 -8 12 -20 19 -26 17 -7 -2 -17 1 -23 7 -44 41
-56 47 -71 35 -12 -10 -16 -10 -25 2 -7 11 -11 11 -15 2 -7 -18 -33 -16 -33 2
0 8 -7 15 -15 15 -20 0 -19 10 2 26 17 11 15 15 -18 48 -19 20 -42 48 -50 63
-8 16 -20 32 -26 36 -7 4 -13 16 -13 26 0 10 -10 31 -22 47 -21 27 -23 38 -23
170 0 78 -3 145 -7 149 -4 4 2 16 13 28 13 14 19 35 19 64 0 40 2 43 19 33 28
-14 31 -13 31 15 0 14 5 25 11 25 6 0 41 32 79 70 38 39 77 70 87 70 11 0 23
4 29 8 5 4 35 16 68 27 32 10 60 25 63 32 6 16 34 17 31 1z m-408 -14 c0 -8
-4 -12 -10 -9 -5 3 -10 10 -10 16 0 5 5 9 10 9 6 0 10 -7 10 -16z m-86 -93 c3
-4 -1 -17 -9 -27 -14 -18 -14 -18 -15 9 0 26 13 36 24 18z m76 -26 c11 -13 8
-15 -13 -15 -19 0 -25 4 -21 15 4 8 10 15 14 15 4 0 13 -7 20 -15z m991 -68
c-18 -18 -22 -2 -9 34 l13 34 3 -29 c2 -16 -1 -33 -7 -39z m-1101 43 c0 -5 -7
-10 -16 -10 -8 0 -12 5 -9 10 3 6 10 10 16 10 5 0 9 -4 9 -10z m-84 -37 c-10
-10 -19 5 -10 18 6 11 8 11 12 0 2 -7 1 -15 -2 -18z m198 -6 c-3 -9 -10 -17
-15 -17 -11 0 -12 34 -2 44 11 11 24 -9 17 -27z m1126 29 c0 -3 -4 -8 -10 -11
-5 -3 -10 -1 -10 4 0 6 5 11 10 11 6 0 10 -2 10 -4z m-1223 -58 c-3 -8 -6 -5
-6 6 -1 11 2 17 5 13 3 -3 4 -12 1 -19z m1178 -53 c11 -7 16 -17 11 -22 -5 -4
-11 -2 -13 5 -3 6 -13 12 -23 12 -11 0 -19 9 -23 25 -4 24 -3 24 12 10 9 -9
25 -22 36 -30z m-1195 10 c0 -8 9 -15 20 -15 12 0 20 7 20 17 0 14 2 15 13 4
10 -11 10 -14 0 -18 -18 -6 -16 -23 2 -23 8 0 15 -7 15 -15 0 -10 -10 -15 -29
-15 -16 0 -31 6 -35 15 -3 8 -12 15 -21 15 -16 0 -19 9 -9 34 8 20 24 21 24 1z
m1181 -56 c7 -14 17 -19 30 -16 13 3 19 1 16 -6 -2 -7 -16 -13 -30 -15 -23 -3
-27 0 -27 22 0 13 -6 27 -12 29 -10 4 -10 6 -1 6 7 1 17 -8 24 -20z m-1121
-69 c0 -10 -6 -20 -12 -23 -10 -3 -10 -11 -1 -38 14 -36 6 -53 -19 -44 -22 9
-28 73 -12 107 16 30 44 29 44 -2z m1140 -105 c0 -7 -7 -15 -15 -19 -12 -4
-15 4 -15 47 l1 52 14 -34 c8 -18 15 -39 15 -46z m34 -60 c4 -10 -1 -15 -16
-15 -17 0 -18 2 -8 15 7 8 14 15 15 15 2 0 5 -7 9 -15z m46 -35 c0 -13 -5 -18
-15 -14 -8 4 -15 12 -15 20 0 8 7 14 15 14 8 0 15 -9 15 -20z m-53 -32 c-3 -8
-6 -5 -6 6 -1 11 2 17 5 13 3 -3 4 -12 1 -19z m-77 -3 c0 -8 -4 -15 -10 -15
-5 0 -10 -12 -10 -27 0 -14 -3 -24 -6 -20 -9 9 5 77 16 77 6 0 10 -7 10 -15z
m170 -115 c0 -11 -4 -20 -10 -20 -5 0 -10 9 -10 20 0 11 5 20 10 20 6 0 10 -9
10 -20z m-43 -22 c-3 -7 -5 -2 -5 12 0 14 2 19 5 13 2 -7 2 -19 0 -25z m40
-40 c-3 -8 -6 -5 -6 6 -1 11 2 17 5 13 3 -3 4 -12 1 -19z m-93 4 c2 -4 0 -14
-5 -22 -8 -13 -10 -13 -18 0 -10 15 -6 30 9 30 5 0 11 -4 14 -8z m46 -58 c0
-39 -5 -70 -12 -77 -16 -15 -58 -20 -58 -7 0 6 11 10 25 10 22 0 24 3 18 33
-3 17 -10 34 -15 35 -11 5 -10 32 1 32 5 0 13 9 16 20 13 40 25 18 25 -46z
m100 21 c0 -14 -4 -25 -9 -25 -5 0 -12 -8 -14 -17 -3 -12 -5 -8 -6 9 -1 32 8
58 20 58 5 0 9 -11 9 -25z m-1280 -11 c0 -8 -4 -12 -10 -9 -5 3 -10 10 -10 16
0 5 5 9 10 9 6 0 10 -7 10 -16z m1234 -99 c-4 -8 -10 -15 -15 -15 -5 0 -9 7
-9 15 0 8 7 15 15 15 9 0 12 -6 9 -15z m-184 -25 c0 -5 -4 -10 -10 -10 -5 0
-10 5 -10 10 0 6 5 10 10 10 6 0 10 -4 10 -10z m126 -6 c-3 -9 -6 -18 -6 -20
0 -2 -9 -4 -20 -4 -25 0 -25 9 -2 26 23 18 35 17 28 -2z m-1176 -14 c0 -5 -7
-10 -15 -10 -8 0 -15 5 -15 10 0 6 7 10 15 10 8 0 15 -4 15 -10z m100 0 c0 -5
-7 -10 -15 -10 -8 0 -15 5 -15 10 0 6 7 10 15 10 8 0 15 -4 15 -10z m1139 -30
c-20 -13 -43 9 -28 26 9 11 14 11 27 -2 13 -13 13 -17 1 -24z m-999 10 c0 -5
-4 -10 -10 -10 -5 0 -10 5 -10 10 0 6 5 10 10 10 6 0 10 -4 10 -10z m60 -25
c0 -15 -18 -30 -27 -22 -2 3 -2 15 2 26 7 23 25 19 25 -4z m875 15 c3 -5 1
-10 -4 -10 -6 0 -11 5 -11 10 0 6 2 10 4 10 3 0 8 -4 11 -10z m-1008 -47 c-3
-10 -5 -2 -5 17 0 19 2 27 5 18 2 -10 2 -26 0 -35z m-190 0 c-3 -10 -5 -4 -5
12 0 17 2 24 5 18 2 -7 2 -21 0 -30z m129 22 c14 -13 13 -15 -10 -15 -16 0
-26 6 -26 15 0 8 5 15 11 15 6 0 17 -7 25 -15z m154 -20 c0 -8 -4 -15 -10 -15
-5 0 -10 7 -10 15 0 8 5 15 10 15 6 0 10 -7 10 -15z m900 0 c0 -9 -9 -15 -22
-15 -22 1 -23 1 -4 15 25 19 26 19 26 0z m-863 -37 c-3 -7 -5 -2 -5 12 0 14 2
19 5 13 2 -7 2 -19 0 -25z m383 17 c0 -8 -7 -15 -15 -15 -8 0 -15 7 -15 15 0
8 7 15 15 15 8 0 15 -7 15 -15z m194 -20 c-4 -17 -10 -23 -16 -17 -6 6 -6 18
2 32 6 12 14 20 16 17 3 -3 2 -17 -2 -32z m-448 14 c3 -6 1 -16 -5 -22 -9 -9
-14 -8 -21 3 -5 8 -10 18 -10 23 0 11 28 8 36 -4z m634 -44 c0 -8 -4 -15 -10
-15 -5 0 -10 7 -10 15 0 8 5 15 10 15 6 0 10 -7 10 -15z m-96 -10 c3 -9 0 -15
-9 -15 -16 0 -27 14 -18 24 10 10 21 7 27 -9z m-279 -34 c-3 -12 -13 -21 -21
-21 -18 0 -18 9 3 32 20 22 27 17 18 -11z m545 -2 c0 -5 -7 -9 -15 -9 -9 0
-15 9 -15 21 0 18 2 19 15 9 8 -7 15 -16 15 -21z m-50 -1 c0 -13 -23 -5 -28
10 -2 7 2 10 12 6 9 -3 16 -11 16 -16z m-770 -49 c0 -28 -4 -39 -15 -39 -16 0
-18 12 -9 59 9 42 24 29 24 -20z m-120 10 c0 -11 -4 -17 -10 -14 -5 3 -10 13
-10 21 0 8 5 14 10 14 6 0 10 -9 10 -21z m750 12 c0 -5 -7 -14 -15 -21 -16
-14 -18 -10 -9 14 6 17 24 22 24 7z m170 -37 c0 -13 -4 -24 -10 -24 -5 0 -10
9 -10 19 0 11 -3 28 -7 38 -6 16 -5 16 10 4 9 -7 17 -24 17 -37z m-610 5 c0
-5 -4 -9 -10 -9 -5 0 -10 7 -10 16 0 8 5 12 10 9 6 -3 10 -10 10 -16z m560 1
c0 -5 -5 -10 -11 -10 -5 0 -7 5 -4 10 3 6 8 10 11 10 2 0 4 -4 4 -10z m-200
-20 c0 -5 -9 -10 -20 -10 -11 0 -20 5 -20 10 0 6 9 10 20 10 11 0 20 -4 20
-10z m-453 -22 c-3 -8 -6 -5 -6 6 -1 11 2 17 5 13 3 -3 4 -12 1 -19z"/>
</g>
</svg>
